<?xml version="1.0" encoding="UTF-8"?>
<svg id="Capa_2" xmlns="http://www.w3.org/2000/svg" xmlns:xlink="http://www.w3.org/1999/xlink" viewBox="0 0 338.02 296.37">
  <defs>
    <style>
      .cls-1 {
        fill: #aed2db;
      }

      .cls-2 {
        fill: #eaf2f4;
      }

      .cls-3 {
        fill: url(#Degradado_sin_nombre_73-2);
      }

      .cls-4 {
        fill: #e3af9a;
      }

      .cls-5 {
        fill: #678287;
      }

      .cls-6 {
        fill: url(#Degradado_sin_nombre_73-4);
      }

      .cls-7 {
        fill: url(#Degradado_sin_nombre_73);
      }

      .cls-8 {
        fill: #ee673a;
      }

      .cls-9 {
        fill: #5b3a27;
      }

      .cls-10 {
        fill: #fff;
      }

      .cls-11 {
        opacity: .17;
      }

      .cls-12 {
        opacity: .46;
      }

      .cls-13 {
        fill: #715154;
      }

      .cls-14 {
        stroke: #2c3349;
      }

      .cls-14, .cls-15, .cls-16, .cls-17, .cls-18 {
        fill: none;
        stroke-linecap: round;
        stroke-miterlimit: 10;
      }

      .cls-14, .cls-17, .cls-18 {
        stroke-width: 5px;
      }

      .cls-19 {
        fill: #8e614a;
      }

      .cls-20 {
        fill: url(#Degradado_sin_nombre_2);
      }

      .cls-15 {
        stroke: #aed2db;
        stroke-width: 3px;
      }

      .cls-21 {
        fill: #4e8fdd;
      }

      .cls-22 {
        fill: #c1d3d6;
      }

      .cls-23 {
        fill: #82f4d6;
      }

      .cls-24 {
        fill: #b24b30;
      }

      .cls-25 {
        fill: #f8feff;
      }

      .cls-16 {
        stroke: #fdc3ac;
        stroke-width: 4px;
      }

      .cls-26 {
        fill: #2c3349;
      }

      .cls-27 {
        fill: #fbbf2d;
      }

      .cls-28 {
        fill: #2e6ac9;
      }

      .cls-29 {
        fill: #fdc3ac;
      }

      .cls-30 {
        fill: #d3a337;
      }

      .cls-31 {
        fill: url(#Degradado_sin_nombre_73-3);
      }

      .cls-32 {
        fill: url(#Degradado_sin_nombre_2-2);
      }

      .cls-33 {
        fill: #16325e;
      }

      .cls-17 {
        stroke: #16325e;
      }

      .cls-34 {
        fill: #edbd45;
      }

      .cls-35 {
        fill: #ee8a43;
      }

      .cls-18 {
        stroke: #2e6ac9;
      }

      .cls-36 {
        fill: #808f91;
      }
    </style>
    <linearGradient id="Degradado_sin_nombre_73" data-name="Degradado sin nombre 73" x1="261.25" y1="294.68" x2="338.02" y2="294.68" gradientUnits="userSpaceOnUse">
      <stop offset="0" stop-color="#5a4ca8"/>
      <stop offset=".63" stop-color="#7144a4"/>
      <stop offset="1" stop-color="#8240a2"/>
    </linearGradient>
    <linearGradient id="Degradado_sin_nombre_73-2" data-name="Degradado sin nombre 73" x1="88.3" x2="162.05" xlink:href="#Degradado_sin_nombre_73"/>
    <linearGradient id="Degradado_sin_nombre_73-3" data-name="Degradado sin nombre 73" x1="0" y1="283.37" x2="96.56" y2="283.37" xlink:href="#Degradado_sin_nombre_73"/>
    <linearGradient id="Degradado_sin_nombre_73-4" data-name="Degradado sin nombre 73" x1="92.24" y1="263.8" y2="263.8" xlink:href="#Degradado_sin_nombre_73"/>
    <linearGradient id="Degradado_sin_nombre_2" data-name="Degradado sin nombre 2" x1="135.47" y1="131.33" x2="274.59" y2="131.33" gradientUnits="userSpaceOnUse">
      <stop offset="0" stop-color="#a276e8"/>
      <stop offset=".42" stop-color="#b970e2"/>
      <stop offset="1" stop-color="#e267da"/>
    </linearGradient>
    <linearGradient id="Degradado_sin_nombre_2-2" data-name="Degradado sin nombre 2" x1="235.83" y1="139.97" x2="247.05" y2="139.97" gradientTransform="translate(-35.24 168.45) rotate(-24.66)" xlink:href="#Degradado_sin_nombre_2"/>
  </defs>
  <g id="OBJECTS">
    <g>
      <path class="cls-7" d="M336.34,296.37h-73.41c-.93,0-1.68-.76-1.68-1.68h0c0-.93.76-1.68,1.68-1.68h73.41c.93,0,1.68.76,1.68,1.68h0c0,.93-.76,1.68-1.68,1.68Z"/>
      <path class="cls-3" d="M160.36,296.37h-70.38c-.93,0-1.68-.76-1.68-1.68h0c0-.93.76-1.68,1.68-1.68h70.38c.93,0,1.68.76,1.68,1.68h0c0,.93-.76,1.68-1.68,1.68Z"/>
      <path class="cls-31" d="M94.88,285.05H1.68c-.93,0-1.68-.76-1.68-1.68h0c0-.93.76-1.68,1.68-1.68h93.2c.93,0,1.68.76,1.68,1.68h0c0,.93-.76,1.68-1.68,1.68Z"/>
      <path class="cls-6" d="M332.7,269.12H97.56c-2.93,0-5.33-2.4-5.33-5.33h0c0-2.93,2.4-5.33,5.33-5.33h235.13c2.93,0,5.33,2.4,5.33,5.33h0c0,2.93-2.4,5.33-5.33,5.33Z"/>
      <g>
        <path class="cls-13" d="M283.85,18.91c-3.63,5.78-1.71,14.24-5.81,16.51,0,0,13.94,7.18,24.67,1.9,0,0-2.06-2.44-.69-7.92l-18.16-10.49Z"/>
        <g>
          <g>
            <line class="cls-15" x1="272.72" y1="122.27" x2="303.91" y2="262.4"/>
            <line class="cls-15" x1="299.07" y1="122.27" x2="330.26" y2="262.4"/>
          </g>
          <g>
            <rect class="cls-1" x="272.26" y="128.96" width="31.2" height="4.31" rx="2.09" ry="2.09" transform="translate(575.72 262.22) rotate(180)"/>
            <path class="cls-5" d="M273.58,133.26h28.68c.66,0,1.2-.54,1.2-1.2h0c0-.66-.54-1.2-1.2-1.2h-28.68c-.66,0-1.2.54-1.2,1.2h0c0,.66.54,1.2,1.2,1.2Z"/>
          </g>
          <g>
            <rect class="cls-1" x="275.55" y="143.32" width="31.2" height="4.31" rx="2.09" ry="2.09" transform="translate(582.3 290.94) rotate(180)"/>
            <path class="cls-5" d="M276.87,147.62h28.68c.66,0,1.2-.54,1.2-1.2h0c0-.66-.54-1.2-1.2-1.2h-28.68c-.66,0-1.2.54-1.2,1.2h0c0,.66.54,1.2,1.2,1.2Z"/>
          </g>
          <g>
            <rect class="cls-1" x="278.84" y="157.68" width="31.2" height="4.31" rx="2.09" ry="2.09" transform="translate(588.87 319.67) rotate(180)"/>
            <path class="cls-5" d="M280.16,161.99h28.68c.66,0,1.2-.54,1.2-1.2h0c0-.66-.54-1.2-1.2-1.2h-28.68c-.66,0-1.2.54-1.2,1.2h0c0,.66.54,1.2,1.2,1.2Z"/>
          </g>
          <g>
            <rect class="cls-1" x="282.13" y="172.05" width="31.2" height="4.3" rx="2.09" ry="2.09" transform="translate(595.45 348.4) rotate(180)"/>
            <path class="cls-5" d="M283.44,176.35h28.68c.66,0,1.2-.54,1.2-1.2h0c0-.66-.54-1.2-1.2-1.2h-28.68c-.66,0-1.2.54-1.2,1.2h0c0,.66.54,1.2,1.2,1.2Z"/>
          </g>
          <g>
            <rect class="cls-1" x="285.41" y="186.41" width="31.2" height="4.31" rx="2.09" ry="2.09" transform="translate(602.03 377.12) rotate(180)"/>
            <path class="cls-5" d="M286.73,190.71h28.68c.66,0,1.2-.54,1.2-1.2h0c0-.66-.54-1.2-1.2-1.2h-28.68c-.66,0-1.2.54-1.2,1.2h0c0,.66.54,1.2,1.2,1.2Z"/>
          </g>
          <g>
            <rect class="cls-1" x="288.7" y="200.77" width="31.2" height="4.31" rx="2.09" ry="2.09" transform="translate(608.6 405.85) rotate(180)"/>
            <path class="cls-5" d="M290.02,205.08h28.68c.66,0,1.2-.54,1.2-1.2h0c0-.66-.54-1.2-1.2-1.2h-28.68c-.66,0-1.2.54-1.2,1.2h0c0,.66.54,1.2,1.2,1.2Z"/>
          </g>
          <g>
            <rect class="cls-1" x="291.99" y="215.14" width="31.2" height="4.31" rx="2.09" ry="2.09" transform="translate(615.18 434.58) rotate(180)"/>
            <path class="cls-5" d="M293.31,219.44h28.68c.66,0,1.2-.54,1.2-1.2h0c0-.66-.54-1.2-1.2-1.2h-28.68c-.66,0-1.2.54-1.2,1.2h0c0,.66.54,1.2,1.2,1.2Z"/>
          </g>
          <g>
            <rect class="cls-1" x="295.28" y="229.5" width="31.2" height="4.31" rx="2.09" ry="2.09" transform="translate(621.76 463.3) rotate(180)"/>
            <path class="cls-5" d="M296.6,233.8h28.68c.66,0,1.2-.54,1.2-1.2h0c0-.66-.54-1.2-1.2-1.2h-28.68c-.66,0-1.2.54-1.2,1.2h0c0,.66.54,1.2,1.2,1.2Z"/>
          </g>
          <g>
            <rect class="cls-1" x="298.57" y="243.86" width="31.2" height="4.31" rx="2.09" ry="2.09" transform="translate(628.33 492.03) rotate(180)"/>
            <path class="cls-5" d="M299.89,248.17h28.68c.66,0,1.2-.54,1.2-1.2h0c0-.66-.54-1.2-1.2-1.2h-28.68c-.66,0-1.2.54-1.2,1.2h0c0,.66.54,1.2,1.2,1.2Z"/>
          </g>
        </g>
        <g>
          <path class="cls-16" d="M281.83,40.77s-5.33,34.12-27.6,14.69"/>
          <path class="cls-29" d="M249.71,53.9c0,1.54,1.25,2.79,2.79,2.79s2.79-1.25,2.79-2.79-1.25-2.79-2.79-2.79-2.79,1.25-2.79,2.79Z"/>
          <g>
            <path class="cls-14" d="M295.54,68.98s-2.96,34,.35,50.76"/>
            <path class="cls-9" d="M287.95,128.21h12.04s1.07-4.11-1.91-7.51h-4.05s-1.01,1.37-1.19,2.92c0,0-5.12-1.01-4.89,4.59Z"/>
            <path class="cls-19" d="M287.83,128.96h12.38c.26,0,.47-.21.47-.47h0c0-.26-.21-.47-.47-.47h-12.38c-.26,0-.47.21-.47.47h0c0,.26.21.47.47.47Z"/>
          </g>
          <g>
            <path class="cls-14" d="M283.36,68.09s-5.62,34.9-2.31,51.66"/>
            <path class="cls-9" d="M273.11,128.21h12.04s1.07-4.11-1.91-7.51h-4.05s-1.01,1.37-1.19,2.92c0,0-5.12-1.01-4.89,4.59Z"/>
            <path class="cls-19" d="M272.98,128.96h12.38c.26,0,.47-.21.47-.47h0c0-.26-.21-.47-.47-.47h-12.38c-.26,0-.47.21-.47.47h0c0,.26.21.47.47.47Z"/>
          </g>
          <path class="cls-26" d="M290.49,74.3h-1.46c-4.68,0-8.48-3.79-8.48-8.48h18.41c0,4.68-3.79,8.48-8.48,8.48Z"/>
          <path class="cls-23" d="M289.76,36.39c-5.06,0-9.21,4.47-9.21,9.93v19.5h18.41v-19.5c0-5.46-4.14-9.93-9.21-9.93Z"/>
          <path class="cls-4" d="M290.11,40.73h0c1.93,0,3.51-1.58,3.51-3.51v-3.58c0-1.93-1.58-3.51-3.51-3.51h0c-1.93,0-3.51,1.58-3.51,3.51v3.58c0,1.93,1.58,3.51,3.51,3.51Z"/>
          <path class="cls-16" d="M296.58,41.69s21.2,5.29,24.31-25.17"/>
          <circle class="cls-29" cx="320.89" cy="14.29" r="2.79"/>
          <g>
            <path class="cls-29" d="M281.22,26.39c0,5.21,4.23,9.44,9.44,9.44s9.44-4.23,9.44-9.44-4.23-9.44-9.44-9.44-9.44,4.23-9.44,9.44Z"/>
            <path class="cls-13" d="M300.26,34.65s-6.34-1.61-5.97-13.12c0,0-8.87,1.45-12.04-1.45,0,0,4.78-4.62,10.86-3.33,6.07,1.29,12.26,7.63,7.15,17.9Z"/>
            <path class="cls-29" d="M294.4,28.5c0,1.47.98,2.65,2.18,2.65s2.18-1.19,2.18-2.65-.98-2.65-2.18-2.65-2.18,1.19-2.18,2.65Z"/>
          </g>
          <g>
            <path class="cls-34" d="M282.14,18.43l20.7,6.4h0c1.77-5.72-1.43-11.79-7.15-13.55h0c-5.72-1.77-11.79,1.43-13.55,7.15h0Z"/>
            <polygon class="cls-35" points="302.83 26.39 278.7 18.58 282.01 17.51 303.33 24.51 302.83 26.39"/>
          </g>
          <rect class="cls-13" x="316.54" y="5.52" width="2.67" height="22" transform="translate(50.85 -156.72) rotate(30)"/>
          <path class="cls-2" d="M322.38,3.46h4.39v5.35h-4.39c-1.14,0-2.06-.92-2.06-2.06v-1.22c0-1.14.92-2.06,2.06-2.06Z" transform="translate(46.3 -160.77) rotate(29.96)"/>
          <path class="cls-2" d="M321.12,6.52l-1.58-.91c-.74-.43-1-1.38-.57-2.12h0c.43-.74,1.38-1,2.12-.57l1.58.91-1.55,2.69Z"/>
          <path class="cls-2" d="M318.7.6h1.78v5.35h-1.78c-1.14,0-2.06-.92-2.06-2.06v-1.22c0-1.14.92-2.06,2.06-2.06Z" transform="translate(592.8 165.39) rotate(-150)"/>
          <path class="cls-2" d="M324.66,3.7l7.05,4.07s-2.28,1.87-5.74,0l-1.31-4.07Z"/>
        </g>
      </g>
      <g>
        <path class="cls-9" d="M112.44,153.39c-3.41-1.79-7.96-1.26-11.25.75-3.27,2-6.31,7.23-5.77,13.58,1,11.76-17.43,27.64-3.83,38.6,14.05,11.33,42.15-4.77,30.07-26.66-7.42-13.44-.97-21.93-9.21-26.27Z"/>
        <path class="cls-16" d="M115.86,177.19s14.69,18.29,30.61-.71"/>
        <path class="cls-29" d="M150.03,175.29c0,1.47-1.19,2.66-2.66,2.66s-2.66-1.19-2.66-2.66,1.19-2.66,2.66-2.66,2.66,1.19,2.66,2.66Z"/>
        <g>
          <path class="cls-17" d="M102.79,204.07s2.75,27.24-1.48,49.11"/>
          <path class="cls-9" d="M108.88,261.24h-11.47s-1.02-3.92,1.82-7.15h3.86s.97,1.31,1.14,2.78c0,0,4.88-.97,4.66,4.37Z"/>
          <path class="cls-19" d="M109,261.95h-11.8c-.25,0-.45-.2-.45-.45h0c0-.25.2-.45.45-.45h11.8c.25,0,.45.2.45.45h0c0,.25-.2.45-.45.45Z"/>
        </g>
        <g>
          <path class="cls-17" d="M114.41,203.22s6.84,26.85,1.05,49.96"/>
          <path class="cls-9" d="M123.03,261.24h-11.47s-1.02-3.92,1.82-7.15h3.86s.97,1.31,1.14,2.78c0,0,4.88-.97,4.66,4.37Z"/>
          <path class="cls-19" d="M123.15,261.95h-11.8c-.25,0-.45-.2-.45-.45h0c0-.25.2-.45.45-.45h11.8c.25,0,.45.2.45.45h0c0,.25-.2.45-.45.45Z"/>
        </g>
        <path class="cls-33" d="M107.61,209.14h1.39c4.46,0,8.08-3.62,8.08-8.08h-17.55c0,4.46,3.62,8.08,8.08,8.08Z"/>
        <path class="cls-21" d="M108.3,173.32c4.83,0,8.77,4.26,8.77,9.47v18.27h-17.55v-18.27c0-5.21,3.95-9.47,8.77-9.47Z"/>
        <path class="cls-4" d="M107.97,177.14h0c-1.84,0-3.35-1.51-3.35-3.35v-3.41c0-1.84,1.51-3.35,3.35-3.35h0c1.84,0,3.35,1.51,3.35,3.35v3.41c0,1.84-1.51,3.35-3.35,3.35Z"/>
        <path class="cls-16" d="M99.77,178.06s-20.15,22.4-24.72-9.64"/>
        <path class="cls-29" d="M77.71,166.03c0,1.47-1.19,2.66-2.66,2.66s-2.66-1.19-2.66-2.66,1.19-2.66,2.66-2.66,2.66,1.19,2.66,2.66Z"/>
        <g>
          <path class="cls-29" d="M116.56,163.66c0,5.21-4.23,9.44-9.44,9.44s-9.44-4.23-9.44-9.44,4.23-9.44,9.44-9.44,9.44,4.23,9.44,9.44Z"/>
          <path class="cls-9" d="M97.52,171.92s6.34-1.61,5.97-13.12c0,0,8.87,1.45,12.04-1.45,0,0-4.78-4.62-10.86-3.33-6.07,1.29-12.26,7.63-7.15,17.9Z"/>
          <path class="cls-29" d="M103.39,165.77c0,1.47-.98,2.65-2.18,2.65s-2.18-1.19-2.18-2.65.98-2.66,2.18-2.66,2.18,1.19,2.18,2.66Z"/>
        </g>
        <g>
          <path class="cls-34" d="M115.65,155.7l-20.7,6.4h0c-1.77-5.72,1.43-11.79,7.15-13.55h0c5.72-1.77,11.79,1.43,13.55,7.15h0Z"/>
          <polygon class="cls-35" points="94.95 163.65 119.08 155.85 115.78 154.78 94.46 161.78 94.95 163.65"/>
        </g>
        <path class="cls-25" d="M84.83,162.06l-2.25,1.32-2.11-.53.55-2.12,2.25-1.32c.42-.24.33-.87-.14-.99l-1.71-.44-2.65,1.56-.77,2.97.1.18-7.49,4.4-.1-.18-2.97-.77-2.65,1.56-.44,1.7c-.12.47.38.85.8.6l2.25-1.32,2.11.53-.55,2.12-2.25,1.32c-.42.24-.33.87.14.99l1.71.44,2.65-1.56.77-2.97-.1-.18,7.49-4.41.1.18,2.97.77,2.65-1.56.44-1.7c.12-.47-.38-.85-.8-.6Z"/>
      </g>
      <g>
        <g>
          <polygon class="cls-22" points="15.63 281.69 7.57 281.69 21.98 224.19 30.04 224.19 15.63 281.69"/>
          <polygon class="cls-22" points="81.92 281.69 89.98 281.69 75.57 224.19 67.51 224.19 81.92 281.69"/>
          <polygon class="cls-36" points="25.54 230.71 20.35 230.71 16.61 245.63 23.78 245.63 24.67 245.63 28.41 230.71 25.54 230.71"/>
          <polygon class="cls-36" points="10.62 270.11 18.53 270.11 22.27 255.19 14.28 255.19 14.21 255.19 10.47 270.11 10.62 270.11"/>
          <polygon class="cls-36" points="69.15 230.71 72.88 245.63 80.94 245.63 77.21 230.71 74.36 230.71 69.15 230.71"/>
          <polygon class="cls-36" points="87.08 270.11 83.34 255.19 75.28 255.19 79.02 270.11 83.86 270.11 87.08 270.11"/>
          <g>
            <rect class="cls-35" x="7.02" y="228.45" width="84.08" height="14.91"/>
            <path class="cls-8" d="M23.78,243.37h67.32v-5.03c-46.54,2.19-44.67-5.68-84.08-6.1v11.13h16.76Z"/>
            <g>
              <polygon class="cls-25" points="14.28 228.45 7.02 235.71 7.02 243.37 10.62 243.37 25.54 228.45 14.28 228.45"/>
              <polygon class="cls-25" points="49.95 228.45 38.69 228.45 23.78 243.37 35.04 243.37 49.95 228.45"/>
              <polygon class="cls-25" points="74.36 228.45 63.11 228.45 48.19 243.37 59.45 243.37 74.36 228.45"/>
              <polygon class="cls-25" points="91.1 236.13 91.1 228.45 87.52 228.45 72.61 243.37 83.86 243.37 91.1 236.13"/>
            </g>
          </g>
          <g>
            <rect class="cls-35" x="7.02" y="252.94" width="84.08" height="14.91"/>
            <path class="cls-8" d="M23.78,267.85h67.32v-5.03c-46.54,2.19-44.67-5.68-84.08-6.1v11.13h16.76Z"/>
            <g>
              <polygon class="cls-25" points="14.28 252.94 7.02 260.2 7.02 267.85 10.62 267.85 25.54 252.94 14.28 252.94"/>
              <polygon class="cls-25" points="49.95 252.94 38.69 252.94 23.78 267.85 35.04 267.85 49.95 252.94"/>
              <polygon class="cls-25" points="74.36 252.94 63.11 252.94 48.19 267.85 59.45 267.85 74.36 252.94"/>
              <polygon class="cls-25" points="91.1 260.61 91.1 252.94 87.52 252.94 72.61 267.85 83.86 267.85 91.1 260.61"/>
            </g>
          </g>
        </g>
        <g>
          <circle class="cls-26" cx="25.54" cy="220.42" r="6.63"/>
          <path class="cls-27" d="M30.39,220.42c0,2.68-2.17,4.85-4.85,4.85s-4.85-2.17-4.85-4.85,2.17-4.85,4.85-4.85,4.85,2.17,4.85,4.85Z"/>
          <path class="cls-30" d="M30.16,218.95c.02.17.03.35.03.53,0,2.57-2.08,4.66-4.66,4.66s-4.66-2.08-4.66-4.66c0-.18.01-.36.03-.53-.15.46-.23.96-.23,1.47,0,2.68,2.17,4.85,4.85,4.85s4.85-2.17,4.85-4.85c0-.51-.08-1.01-.23-1.47Z"/>
          <g class="cls-12">
            <path class="cls-25" d="M26.08,215.61l-5.36,5.36c.09.83.39,1.59.85,2.24l6.75-6.75c-.65-.45-1.41-.76-2.24-.85Z"/>
            <path class="cls-25" d="M30.2,219.1c-.2-.7-.55-1.33-1.01-1.86l-6.84,6.84c.53.46,1.16.81,1.86,1.01l5.99-5.99Z"/>
          </g>
        </g>
        <g>
          <circle class="cls-26" cx="72.11" cy="220.42" r="6.63"/>
          <path class="cls-27" d="M76.97,220.42c0,2.68-2.17,4.85-4.85,4.85s-4.85-2.17-4.85-4.85,2.17-4.85,4.85-4.85,4.85,2.17,4.85,4.85Z"/>
          <path class="cls-30" d="M76.74,218.95c.02.17.03.35.03.53,0,2.57-2.08,4.66-4.66,4.66s-4.66-2.08-4.66-4.66c0-.18.01-.36.03-.53-.15.46-.23.96-.23,1.47,0,2.68,2.17,4.85,4.85,4.85s4.85-2.17,4.85-4.85c0-.51-.08-1.01-.23-1.47Z"/>
          <g class="cls-12">
            <path class="cls-25" d="M72.66,215.61l-5.36,5.36c.09.83.39,1.59.85,2.24l6.75-6.75c-.65-.45-1.41-.76-2.24-.85Z"/>
            <path class="cls-25" d="M76.78,219.1c-.2-.7-.55-1.33-1.01-1.86l-6.84,6.84c.53.46,1.16.81,1.86,1.01l5.99-5.99Z"/>
          </g>
        </g>
      </g>
      <g>
        <rect class="cls-25" x="123.47" y="56.5" width="163.12" height="205.85" rx="8.42" ry="8.42"/>
        <rect class="cls-26" x="105.1" y="80.86" width="199.85" height="157.12" rx="5.42" ry="5.42" transform="translate(364.45 -45.6) rotate(90)"/>
        <rect class="cls-26" x="105.1" y="80.86" width="199.85" height="157.12" rx="5.42" ry="5.42" transform="translate(364.45 -45.6) rotate(90)"/>
        <rect class="cls-2" x="114.1" y="89.86" width="181.85" height="139.12" transform="translate(364.45 -45.6) rotate(90)"/>
        <path class="cls-20" d="M135.47,68.5v65.5c0,2.03,1.65,3.68,3.68,3.68s3.68-1.65,3.68-3.68v-17.23c0-2.03,1.65-3.68,3.68-3.68,1.77,0,3.25,1.25,3.6,2.92v42.22c0,2.03,1.65,3.68,3.68,3.68s3.68-1.65,3.68-3.68v-9.55c.05-.24.08-.5.08-.76v-15.16c.35-1.67,1.83-2.92,3.6-2.92s3.25,1.25,3.6,2.92v45.67c0,2.03,1.65,3.68,3.68,3.68s3.68-1.65,3.68-3.68v-33.36c.05-.24.08-.5.08-.76v-2.84c.35-1.67,1.83-2.92,3.6-2.92s3.25,1.25,3.6,2.92v16.6c0,2.03,1.65,3.68,3.68,3.68s3.68-1.65,3.68-3.68v-9.55c.05-.24.08-24.98.08-25.24v-2.84c.35-1.67,1.83-2.92,3.6-2.92s3.25,1.25,3.6,2.92v41.1c0,2.03,1.65,3.68,3.68,3.68s3.68-1.65,3.68-3.68v-6.84c.05-.24.08-.5.08-.76v-2.84c.35-1.67,1.83-2.92,3.6-2.92s3.25,1.25,3.6,2.92v13.85c0,2.03,1.65,3.68,3.68,3.68s3.68-1.65,3.68-3.68v-1.51c.05-.24.08-.5.08-.76v-17.06c.35-1.67,1.83-2.92,3.6-2.92s3.25,1.25,3.6,2.92v44.84c0,2.03,1.65,3.68,3.68,3.68s3.68-1.65,3.68-3.68v-27.02c.05-.24.08-.5.08-.76v-2.84c.35-1.67,1.83-2.92,3.6-2.92s3.25,1.25,3.6,2.92v13.14c0,2.03,1.65,3.68,3.68,3.68s3.68-1.65,3.68-3.68v-9.55c.05-.24.08-8.21.08-8.46v-2.84c.35-1.67,1.83-2.92,3.6-2.92s3.25,1.25,3.6,2.92v14.66c0,2.03,1.65,3.68,3.68,3.68s3.68-1.65,3.68-3.68v-3.35c.05-.24.08-.5.08-.76v-2.84c.35-1.67,1.83-2.92,3.6-2.92,2.03,0,3.68,1.65,3.68,3.68v2.08c0,2.03,1.65,3.68,3.68,3.68s3.68-1.65,3.68-3.68v-94.2h-139.12Z"/>
        <g class="cls-11">
          <polygon class="cls-25" points="283.59 165.1 189.34 259.35 203.59 259.35 283.59 179.35 283.59 165.1"/>
          <path class="cls-25" d="M126.47,177.74v55.2l157.12-157.12v-10.9c0-2.99-2.43-5.42-5.42-5.42h-33.46l-118.24,118.24Z"/>
          <path class="cls-25" d="M126.47,253.92c0,.82.19,1.6.52,2.3l156.6-156.6v-15.62L126.47,241.12v12.8Z"/>
        </g>
      </g>
      <g>
        <path class="cls-16" d="M278.84,208.94s-14.69,18.29-30.61-.71"/>
        <path class="cls-29" d="M244.67,207.05c0,1.47,1.19,2.66,2.66,2.66s2.66-1.19,2.66-2.66-1.19-2.66-2.66-2.66-2.66,1.19-2.66,2.66Z"/>
        <g>
          <path class="cls-18" d="M291.9,235.83s-2.75,27.24,1.48,49.11"/>
          <path class="cls-9" d="M285.81,293h11.47s1.02-3.92-1.82-7.15h-3.86s-.97,1.31-1.14,2.78c0,0-4.88-.97-4.66,4.37Z"/>
          <path class="cls-19" d="M285.69,293.71h11.8c.25,0,.45-.2.45-.45h0c0-.25-.2-.45-.45-.45h-11.8c-.25,0-.45.2-.45.45h0c0,.25.2.45.45.45Z"/>
        </g>
        <g>
          <path class="cls-18" d="M280.29,234.98s-6.84,26.85-1.05,49.96"/>
          <path class="cls-9" d="M271.67,293h11.47s1.02-3.92-1.82-7.15h-3.86s-.97,1.31-1.14,2.78c0,0-4.88-.97-4.66,4.37Z"/>
          <path class="cls-19" d="M271.55,293.71h11.8c.25,0,.45-.2.45-.45h0c0-.25-.2-.45-.45-.45h-11.8c-.25,0-.45.2-.45.45h0c0,.25.2.45.45.45Z"/>
        </g>
        <path class="cls-28" d="M287.09,240.9h-1.39c-4.46,0-8.08-3.62-8.08-8.08h17.55c0,4.46-3.62,8.08-8.08,8.08Z"/>
        <path class="cls-35" d="M286.39,205.08c-4.83,0-8.77,4.26-8.77,9.47v18.27h17.55v-18.27c0-5.21-3.95-9.47-8.77-9.47Z"/>
        <path class="cls-4" d="M286.73,208.9h0c1.84,0,3.35-1.51,3.35-3.35v-3.41c0-1.84-1.51-3.35-3.35-3.35h0c-1.84,0-3.35,1.51-3.35,3.35v3.41c0,1.84,1.51,3.35,3.35,3.35Z"/>
        <g>
          <circle class="cls-29" cx="286.93" cy="195.99" r="8.67" transform="translate(-34.93 65.04) rotate(-12.2)"/>
          <path class="cls-9" d="M288.68,193.09s-7.69,1.63-10.56-1.19c-2.88-2.81,1.73-9.42,7.27-5.42,0,0,8.54-.4,10.79,4.6,2.28,5.07-1.94,9.44-1.94,9.44,0,0-5.13-.63-5.56-7.44Z"/>
          <path class="cls-29" d="M290.36,197.92c0,1.35.9,2.44,2.01,2.44s2.01-1.09,2.01-2.44-.9-2.44-2.01-2.44-2.01,1.09-2.01,2.44Z"/>
        </g>
        <path class="cls-34" d="M277.74,187.25l19.73,6.1h0c1.69-5.45-1.36-11.23-6.81-12.92h0c-5.45-1.69-11.23,1.36-12.92,6.81h0Z"/>
        <polygon class="cls-35" points="297.47 194.83 274.47 187.39 277.62 186.37 297.94 193.04 297.47 194.83"/>
        <path class="cls-16" d="M294.93,209.82s10.2,12.42,3.4,37.12"/>
        <path class="cls-29" d="M294.96,249.41c0,1.47,1.19,2.66,2.66,2.66s2.66-1.19,2.66-2.66-1.19-2.66-2.66-2.66-2.66,1.19-2.66,2.66Z"/>
        <g>
          <rect class="cls-22" x="238.3" y="192.91" width="11.22" height="9.75" transform="translate(-60.28 119.82) rotate(-24.66)"/>
          <path class="cls-32" d="M248.22,193.72c-1.29,1.2-2.45,1.64-3.26,1.83-1.89.44-3.04-.24-5.22.29-1.1.27-1.93.71-2.43,1.03-.18-.39-.36-.77-.53-1.16l10.2-4.68,1.24,2.7Z"/>
          <path class="cls-13" d="M244.29,202.67l2.1,4.58c.39.85,1.4,1.22,2.25.83.85-.39,1.22-1.4.83-2.25l-2.1-4.58-3.08,1.41Z"/>
          <path class="cls-13" d="M250.95,200.97l-9.21,4.23c-.74.34-1.61.02-1.95-.72h0c-.34-.74-.02-1.61.72-1.95l9.21-4.23c.74-.34,1.61-.02,1.95.72h0c.34.74.02,1.61-.72,1.95Z"/>
        </g>
      </g>
      <g>
        <path class="cls-8" d="M317.7,292.05h-11.83l9.58-27.2c.75-2.12,3.74-2.12,4.49,0l9.59,27.2h-11.83Z"/>
        <path class="cls-35" d="M328.32,288.61l-8.37-23.76c-.75-2.12-3.74-2.12-4.49,0l-1.91,5.43c-.84,13.6,7.28,17.8,14.78,18.33Z"/>
        <path class="cls-24" d="M330.65,293.57h-25.91c-.71,0-1.3-.58-1.3-1.3h0c0-.71.58-1.3,1.3-1.3h25.91c.71,0,1.3.58,1.3,1.3h0c0,.71-.58,1.3-1.3,1.3Z"/>
        <g>
          <polygon class="cls-10" points="311.19 276.93 324.2 276.93 321.68 269.77 313.72 269.77 311.19 276.93"/>
          <polygon class="cls-10" points="328.07 287.92 326.21 282.64 309.18 282.64 307.32 287.92 328.07 287.92"/>
        </g>
        <path class="cls-8" d="M330.27,292.41h-25.41c-.2,0-.36-.16-.36-.36h0c0-.2.16-.36.36-.36h25.41c.2,0,.36.16.36.36h0c0,.2-.16.36-.36.36Z"/>
      </g>
      <g>
        <path class="cls-8" d="M109.56,292.05h-11.83l9.58-27.2c.75-2.12,3.74-2.12,4.49,0l9.59,27.2h-11.83Z"/>
        <path class="cls-35" d="M120.18,288.61l-8.37-23.76c-.75-2.12-3.74-2.12-4.49,0l-1.91,5.43c-.84,13.6,7.28,17.8,14.78,18.33Z"/>
        <path class="cls-24" d="M122.51,293.57h-25.91c-.71,0-1.3-.58-1.3-1.3h0c0-.71.58-1.3,1.3-1.3h25.91c.71,0,1.3.58,1.3,1.3h0c0,.71-.58,1.3-1.3,1.3Z"/>
        <g>
          <polygon class="cls-10" points="103.06 276.93 116.06 276.93 113.54 269.77 105.58 269.77 103.06 276.93"/>
          <polygon class="cls-10" points="119.93 287.92 118.07 282.64 101.04 282.64 99.18 287.92 119.93 287.92"/>
        </g>
        <path class="cls-8" d="M122.13,292.41h-25.41c-.2,0-.36-.16-.36-.36h0c0-.2.16-.36.36-.36h25.41c.2,0,.36.16.36.36h0c0,.2-.16.36-.36.36Z"/>
      </g>
      <g>
        <rect class="cls-27" x="125.97" y="270.79" width="33.02" height="22.7"/>
        <path class="cls-30" d="M158.99,287.24c-4.78,2.21-15.18,4.26-33.02-4.95v11.19h33.02v-6.25Z"/>
        <rect class="cls-10" x="152.76" y="272.09" width="4.3" height="4.3"/>
        <path class="cls-26" d="M156.68,278.03h-7.09c-.21,0-.38-.17-.38-.38h0c0-.21.17-.38.38-.38h7.09c.21,0,.38.17.38.38h0c0,.21-.17.38-.38.38Z"/>
        <path class="cls-26" d="M156.68,279.72h-3.55c-.21,0-.38-.17-.38-.38h0c0-.21.17-.38.38-.38h3.55c.21,0,.38.17.38.38h0c0,.21-.17.38-.38.38Z"/>
        <path class="cls-26" d="M156.68,281.38h-3.55c-.21,0-.38-.17-.38-.38h0c0-.21.17-.38.38-.38h3.55c.21,0,.38.17.38.38h0c0,.21-.17.38-.38.38Z"/>
        <path class="cls-26" d="M156.68,283.05h-3.55c-.21,0-.38-.17-.38-.38h0c0-.21.17-.38.38-.38h3.55c.21,0,.38.17.38.38h0c0,.21-.17.38-.38.38Z"/>
      </g>
    </g>
  </g>
</svg>